# xmcd
#
# Track frame offsets: 
#        150
#        20159
#        38591
#        58949
#        86314
#
# Disc length: 1337 seconds
#
# Revision: 0
# Processed by: cddbd v1.5.2PL0 Copyright (c) Steve Scherf et al.
# Submitted via: ExactAudioCopy v1.0b3
#
DISCID=37053705
DTITLE=Amy Lavere - Died of Love
DYEAR=2009
DGENRE=Rock
TTITLE0=Railroad Boy (Died of Love)
TTITLE1=Green Grass
TTITLE2=If Love Was A Train
TTITLE3=Lazarus
TTITLE4=Washing Machine (Reloaded)
EXTD=
EXTT0=
EXTT1=
EXTT2=
EXTT3=
EXTT4=
PLAYORDER=
